<svg xmlns="http://www.w3.org/2000/svg" xml:space="preserve" width="1500" height="1500" data-id="lg_Hz1Vs47170rRxValmi" data-version="1" viewBox="0 0 1500 1500"><path fill="#fff" stroke="transparent" d="M0 0h1500v1500H0z"/><g data-padding="20"><g transform="translate(-557.42 -568.564)scale(1.70435)"><rect width="410.454" height="155.94" x="158.514" y="295.25" fill="none" rx="0" ry="0" transform="translate(400.5 374.12)"/><path fill="#ff4136" d="M644.431 719.27v66.97q-7.55 5.66-19.34 5.66-9.1 0-14.42-3.7-5.59-3.78-5.59-10.92v-13.34h4.78q2.76 0 3.47-.71.71-.7.71-2.32h-21.16q0 1.62.61 2.32.6.71 2.89.71h5.12v22.3q-5.18 3.37-9.83 4.52-4.65 1.14-9.5 1.14-9.1 0-14.42-3.7-5.6-3.78-5.6-10.92v-67.04q3.51-3.71 8.66-5.7 5.16-1.99 10.75-1.99 8.15 0 13.81 4.05 6.13 4.58 6.13 12.67v11.99h8.56q0-1.75-.64-2.39t-2.05-.64h-2.29v-17.99q3.5-3.71 8.65-5.7 5.16-1.99 10.75-1.99 8.16 0 13.82 4.05 6.13 4.58 6.13 12.67m38.94 10.79v26.68q0 10.04 4.86 13.07.06.34.06 1.28v1.22q0 9.9-5.39 14.89-4.98 4.71-13.31 4.71-8.32 0-13.71-4.71-6.8-6-6.8-17.52v-43.8q1.21-.88 2.62-1.42 1.42-.54 2.97-1.34-2.9-1.49-5.26-5.16-2.35-3.67-2.35-8.59 0-8.49 5.59-13.88t13.71-5.39 13.61 5.49 5.49 13.78q0 6.67-4.17 11.69-4.18 5.02-10.18 6.3 0 2.56 1.96 2.56 3.43 0 7-2.69 2.7 2.09 3.3 2.83"/><path fill="#ff4136" d="M725.361 754.3v9.03q.48.48 1.55.48 1.08 0 1.55-.75.48-.74.48-2.56v-6.87q0-6.47-.54-8.59t-2.03-2.12q-.94 0-1.61.67.6 6.67.6 10.71m-21.49-29.04q0 2.02 2.36 2.02 4.04-6.33 9.5-9.4 5.46-3.06 13.14-3.06t14.01 2.42q8.7 3.44 13.75 11.05 6.33 9.64 6.33 25.27 0 17.59-9.4 27.33-9.4 9.73-26.04 9.73-9.3 0-14.49-2.29-.47.27-.47 1.15 0 2.02 3.13 2.9 3.14.87 10.82 1.28v17.92q-6.94 3.1-15.23 3.1-9.77 0-14.76-3.57-5.66-3.84-5.66-11.79v-54.25q-3.97-5.59-3.97-13.88 0-3.37 1.08-7.34 1.07-3.98 2.89-6.81h9.57q5.86 0 8.96 1.62-5.52 4.11-5.52 6.6m98.64 12.6q-1.75.54-1.75 2.09v.34q0 .34.06.4.74-.06 1.96-.06h1.61q7.69 0 14.39 2.32 6.71 2.33 10.95 7.45 4.72 5.79 4.72 14.62 0 13.74-9.5 20.75t-25.41 7.01q-15.9 0-24.9-5.26-8.99-5.25-8.99-15.43 0-3.77 1.62-6.9 1.61-3.14 3.64-4.42 3.7 3.1 10.74 5.36t14.93 2.26q3.16 0 3.16-1.75 0-.81-.2-1.35-.47.07-1.14.07h-.74q-14.29 0-22.85-5.66-9.7-6.41-9.7-18.06 0-11.66 8.69-18.87 9.64-7.95 26.48-7.95 8.29 0 15.47 1.75 7.17 1.75 12.3 4.65 1.28 2.76 1.28 8.15 0 8.22-4.52 12.6-3.44-1.88-8.39-3.13t-8.93-1.25q-3.97 0-4.98.27m42.05 29.72v-19.47h4.18q3.37 0 3.37-2.23 0-.27-.13-.81h-15.1q-1.48-4.71-1.48-10.54t.88-9.47q3.84-2.43 10.58-7.41 1.88-4.58 4.91-14.56.41-1.34.95-2.62 5.25-1.35 11.99-1.35t13.28 1.41v16.51h11.65q3.91 5.93 3.91 13.95 0 3.64-1.01 7.48t-2.9 6.54h-9.63v10.17q0 8.63 7.21 8.63h2.9q1.41 5.12 1.41 8.89 0 9.3-5.83 14.25t-16.91 4.95q-11.09 0-17.66-6.16-6.57-6.17-6.57-18.16m120.06-23.45v13.21q0 4.85 1.08 7.81 1.08 2.97 3.77 4.65.07.34.07 1.28v1.22q0 9.56-5.8 14.89-5.12 4.71-12.66 4.71-5.12 0-9.37-2.42-4.24-2.43-6.06-7.01-2.3 0-2.3 2.22 0 1.89 2.36 4.25-4.38 2.96-13.2 2.96-12.47 0-19.92-6.77-7.44-6.77-7.44-18.93t7.88-18.84q7.21-5.99 18.67-5.99 3.91 0 7.54.54 2.43.47 2.63.54.2-.68.2-1.15 0-1.75-2.96-2.36t-7.75-.61q-10.17 0-17.38 4.12-3.31-5.6-3.31-14.16 0-4.85 1.22-7.21 4.85-2.22 12.33-3.94t15.77-1.72q17.11 0 25.87 7.48t8.76 21.23m-34.97 16.51q-2.83 0-2.83 2.56 0 2.42 3.3 2.42 2.29 0 3.37-1.11t1.08-3.87Z"/><rect width="560" height="61.02" x="83.741" y="342.71" fill="none" rx="0" ry="0" transform="translate(400.5 474.19)"/><path fill="#ff4136" d="M501.061 865.02q-5.78 0-9.24-3.32-3.45-3.32-3.45-10.34 0-2.92.51-6.26.51-3.35 1.65-6.62 1.13-3.27 3.1-5.94t4.86-4.27q2.89-1.59 6.83-1.59 6.21 0 9.37 3.27t3.16 10.02h-4.91v-.38q0-4.21-1.87-6.37-1.86-2.16-5.8-2.16-3.19 0-5.35 1.59t-3.48 4.08q-1.32 2.48-2.02 5.26-.71 2.78-.95 5.21t-.24 3.89q0 4.59 2.02 7.05 2.03 2.45 6.24 2.45 3.02 0 5.1-1.29 2.08-1.3 3.3-3.4 1.21-2.11 1.59-4.59l.65-4.11 1.73 2.05h-11.78l.6-4.15h14.52l-2.75 19.27h-3.13l-.43-4.1q-1.68 2.16-4.14 3.46-2.45 1.29-5.69 1.29m24.3-.65h-4.38l5.4-39.04h4.43Zm15.33.65q-4.37 0-6.67-2.46-2.29-2.45-2.29-7.64 0-2.32.32-4.99.33-2.67 1.11-5.27.78-2.59 2.13-4.69 1.35-2.11 3.43-3.38t5.05-1.27q4.38 0 6.67 2.49 2.3 2.48 2.3 7.72 0 2.32-.33 4.99-.32 2.68-1.11 5.24-.78 2.57-2.13 4.64-1.35 2.08-3.43 3.35t-5.05 1.27m0-3.94q2 0 3.32-1.22 1.33-1.21 2.16-3.13.84-1.91 1.25-4.05.4-2.13.56-4.05.17-1.91.17-3.05 0-3.13-1.08-4.72-1.08-1.6-3.3-1.6-1.94 0-3.29 1.19t-2.16 3.05q-.81 1.87-1.24 3.94-.44 2.08-.6 3.92t-.16 2.97q0 3.4 1.03 5.08 1.02 1.67 3.34 1.67m24.3 3.29h-4.96l-3.14-28.4h4.27l1.62 15.98q.11.76.19 2t.19 2.65q.11 1.4.11 2.75h.21l.22-1.24q.21-1.24.62-2.97.4-1.73.84-3.19l5.07-15.98h5.29l.76 15.98q0 .22.03.65.02.43.02 1.24v5.51h.22l.13-.67q.14-.68.41-1.81.27-1.14.65-2.43.38-1.3.81-2.49l5.99-15.98h4.16l-11.02 28.4h-4.91l-.76-18.46q0-1.14.06-2.35.05-1.22.11-2.03l.05-.81h-.22l-.24 1.24q-.24 1.25-.65 2.97-.4 1.73-.89 3.24Zm59.89 0h-5.02l-9.99-18.95q-1.46-2.75-1.92-4.78-.46-2.02-.46-3.75 0-2.81 1.05-5.13 1.06-2.32 3.08-3.7 2.03-1.38 5-1.38 1.89 0 3.51.81t2.64 2.35q1.03 1.54 1.03 3.86 0 2.97-1.43 5.4t-3.75 4.13q-2.33 1.7-5.08 2.57l-1.46-3.4q2.16-.49 3.78-1.6 1.62-1.1 2.57-2.81.94-1.7.94-3.91 0-1.73-.94-2.65-.95-.91-2.19-.91-2.27 0-3.35 1.83-1.08 1.84-1.08 4.27 0 1.67.41 3.29.4 1.62 1.21 2.86Zm-16.15.71q-2.48 0-4.45-1.06-1.97-1.05-3.11-3.05-1.13-2-1.13-4.8 0-3.08 1.19-5.67 1.19-2.6 3.48-4.57 2.3-1.97 5.54-3.05l1.56 3.51q-2.32.6-3.94 1.97-1.62 1.38-2.46 3.27-.83 1.89-.83 4 0 2.7 1.24 4.1t3.62 1.4q2.32 0 5.02-1.59t5.05-4.99q2.35-3.41 3.53-8.75h4.22q-1.08 4.91-3.08 8.56-2 3.64-4.57 6.02-2.56 2.37-5.37 3.53-2.81 1.17-5.51 1.17m47.37-.06q-5.78 0-9.23-3.32-3.46-3.32-3.46-10.34 0-2.92.51-6.26.52-3.35 1.65-6.62 1.14-3.27 3.11-5.94t4.86-4.27q2.89-1.59 6.83-1.59 6.21 0 9.37 3.27t3.16 10.02h-4.92v-.38q0-4.21-1.86-6.37t-5.81-2.16q-3.18 0-5.34 1.59t-3.49 4.08q-1.32 2.48-2.02 5.26t-.95 5.21q-.24 2.43-.24 3.89 0 4.59 2.03 7.05 2.02 2.45 6.23 2.45 3.03 0 5.11-1.29 2.08-1.3 3.29-3.4 1.22-2.11 1.59-4.59l.65-4.11 1.73 2.05h-11.77l.59-4.15h14.53l-2.76 19.27h-3.13l-.43-4.1q-1.67 2.16-4.13 3.46-2.46 1.29-5.7 1.29m29.8 0q-4.37 0-6.67-2.46-2.29-2.45-2.29-7.64 0-2.32.32-4.99t1.11-5.27q.78-2.59 2.13-4.69 1.35-2.11 3.43-3.38t5.05-1.27q4.37 0 6.67 2.49 2.29 2.48 2.29 7.72 0 2.32-.32 4.99-.33 2.68-1.11 5.24-.78 2.57-2.13 4.64-1.35 2.08-3.43 3.35t-5.05 1.27m0-3.94q2 0 3.32-1.22 1.32-1.21 2.16-3.13.84-1.91 1.24-4.05.41-2.13.57-4.05.16-1.91.16-3.05 0-3.13-1.08-4.72-1.08-1.6-3.29-1.6-1.95 0-3.3 1.19t-2.16 3.05q-.81 1.87-1.24 3.94-.43 2.08-.59 3.92t-.16 2.97q0 3.4 1.02 5.08 1.03 1.67 3.35 1.67m17.82 9.99h-2.97l2.75-6.7h-1.78l.81-5.83h5.4l-.75 5.35Zm36.51-6.7h-13.98l5.24-37.04h13.01q4 0 6.45 2.13 2.46 2.14 2.46 5.7 0 2.43-.97 4.4t-2.57 3.35q-1.59 1.38-3.43 2.02l-.05.22q2.38.81 3.86 2.92 1.49 2.1 1.49 5.18 0 3.46-1.68 5.97-1.67 2.51-4.29 3.83t-5.54 1.32m-6.85-16.79-1.73 12.47h8.58q1.68 0 3.19-.78t2.46-2.32q.94-1.54.94-3.7 0-2.32-1.46-4-1.45-1.67-4.15-1.67Zm2.21-15.93-1.62 11.61h7.4q2.1 0 3.67-.97t2.4-2.57q.84-1.59.84-3.32 0-2.43-1.49-3.59-1.48-1.16-4.02-1.16Zm29.1 33.37q-4.38 0-6.67-2.46-2.3-2.45-2.3-7.64 0-2.32.33-4.99.32-2.67 1.1-5.27.79-2.59 2.14-4.69 1.35-2.11 3.42-3.38 2.08-1.27 5.05-1.27 4.38 0 6.67 2.49 2.3 2.48 2.3 7.72 0 2.32-.33 4.99-.32 2.68-1.1 5.24-.79 2.57-2.14 4.64-1.35 2.08-3.43 3.35-2.07 1.27-5.04 1.27m0-3.94q1.99 0 3.32-1.22 1.32-1.21 2.16-3.13.83-1.91 1.24-4.05.4-2.13.57-4.05.16-1.91.16-3.05 0-3.13-1.08-4.72-1.08-1.6-3.3-1.6-1.94 0-3.29 1.19t-2.16 3.05q-.81 1.87-1.24 3.94-.43 2.08-.6 3.92-.16 1.84-.16 2.97 0 3.4 1.03 5.08 1.02 1.67 3.35 1.67m24.63 3.94q-4.37 0-6.67-2.46-2.29-2.45-2.29-7.64 0-2.32.32-4.99t1.11-5.27q.78-2.59 2.13-4.69 1.35-2.11 3.43-3.38t5.05-1.27q4.37 0 6.67 2.49 2.29 2.48 2.29 7.72 0 2.32-.32 4.99-.33 2.68-1.11 5.24-.78 2.57-2.13 4.64-1.35 2.08-3.43 3.35t-5.05 1.27m0-3.94q2 0 3.32-1.22 1.32-1.21 2.16-3.13.84-1.91 1.24-4.05.41-2.13.57-4.05.16-1.91.16-3.05 0-3.13-1.08-4.72-1.08-1.6-3.29-1.6-1.95 0-3.3 1.19t-2.16 3.05q-.81 1.87-1.24 3.94-.43 2.08-.59 3.92t-.16 2.97q0 3.4 1.02 5.08 1.03 1.67 3.35 1.67m19.33 3.29h-4.43l5.46-39.04h4.43l-3.3 23.28 10.64-12.64h5.29l-10.04 11.66 6.48 16.74h-4.86l-4.75-13.06-3.51 2.97Zm44.28 0h-4.75l2.16-15.33-8.91-21.71h5.18l6.75 17.17h.22l11.56-17.17h4.96l-15.01 21.71Zm24.99.65q-4.37 0-6.67-2.46-2.29-2.45-2.29-7.64 0-2.32.32-4.99.33-2.67 1.11-5.27.78-2.59 2.13-4.69 1.35-2.11 3.43-3.38t5.05-1.27q4.38 0 6.67 2.49 2.3 2.48 2.3 7.72 0 2.32-.33 4.99-.32 2.68-1.11 5.24-.78 2.57-2.13 4.64-1.35 2.08-3.43 3.35t-5.05 1.27m0-3.94q2 0 3.32-1.22 1.33-1.21 2.16-3.13.84-1.91 1.25-4.05.4-2.13.56-4.05.17-1.91.17-3.05 0-3.13-1.08-4.72-1.08-1.6-3.3-1.6-1.94 0-3.29 1.19t-2.16 3.05q-.81 1.87-1.24 3.94-.44 2.08-.6 3.92t-.16 2.97q0 3.4 1.03 5.08 1.02 1.67 3.34 1.67m22.32 3.94q-2.33 0-3.68-.92-1.35-.91-1.91-2.37-.57-1.46-.57-3.08 0-.43.22-2.24.21-1.81.56-4.38.35-2.56.73-5.37t.73-5.24.57-3.94l.21-1.51h4.43l-.21 1.46q-.22 1.46-.54 3.75-.33 2.3-.71 4.97-.37 2.67-.7 5.13-.32 2.46-.54 4.18-.21 1.73-.21 2.16 0 1.84.83 2.65.84.81 2.41.81 2.7 0 4.45-2.57 1.76-2.56 2.3-6.66l2.21-15.88h4.43l-4 28.4h-3.45v-4.15q-.38.81-1.3 1.94t-2.46 2q-1.54.86-3.8.86m21.49-.65h-4.43l4-28.4h3.45v4.54q.54-1.08 1.22-2.3.67-1.21 1.75-2.05t2.7-.84q.92 0 1.49.22l.56.21-.64 4.59h-1.46q-2.11 0-3.94 1.92-1.84 1.92-2.38 5.7Zm28.35 0h-4.75l5.23-37.04h21.39l-.65 4.32h-16.63l-1.68 11.99h14.69l-.59 4.32h-14.69Zm25.69 0h-4.37l5.4-39.04h4.43Zm15.35.65q-4.38 0-6.67-2.46-2.3-2.45-2.3-7.64 0-2.32.33-4.99.32-2.67 1.1-5.27.79-2.59 2.14-4.69 1.35-2.11 3.43-3.38t5.05-1.27q4.37 0 6.66 2.49 2.3 2.48 2.3 7.72 0 2.32-.32 4.99-.33 2.68-1.11 5.24-.78 2.57-2.13 4.64-1.35 2.08-3.43 3.35t-5.05 1.27m0-3.94q2 0 3.32-1.22 1.32-1.21 2.16-3.13.84-1.91 1.24-4.05.41-2.13.57-4.05.16-1.91.16-3.05 0-3.13-1.08-4.72-1.08-1.6-3.29-1.6-1.95 0-3.3 1.19t-2.16 3.05q-.81 1.87-1.24 3.94-.43 2.08-.59 3.92-.17 1.84-.17 2.97 0 3.4 1.03 5.08 1.03 1.67 3.35 1.67m24.3 3.29h-4.97l-3.13-28.4h4.26l1.62 15.98q.11.76.19 2t.19 2.65q.11 1.4.11 2.75h.22l.21-1.24q.22-1.24.62-2.97.41-1.73.84-3.19l5.08-15.98h5.29l.75 15.98q0 .22.03.65t.03 1.24v5.51h.21l.14-.67q.13-.68.4-1.81.27-1.14.65-2.43.38-1.3.81-2.49l6-15.98h4.15l-11.01 28.4h-4.92l-.75-18.46q0-1.14.05-2.35.06-1.22.11-2.03l.05-.81h-.21l-.25 1.24q-.24 1.25-.64 2.97-.41 1.73-.89 3.24Zm29.2-9.23h-3.35l2.6-27.81h6.1Zm-.21 9.23h-5.4l.81-5.83h5.4Z"/></g><path fill="transparent" stroke="transparent" stroke-width="1.767" d="M250 565.371h1000v369.258H250z"/></g></svg>